<?xml version="1.0" encoding="UTF-8" standalone="no"?><!DOCTYPE svg PUBLIC "-//W3C//DTD SVG 1.1//EN" "http://www.w3.org/Graphics/SVG/1.1/DTD/svg11.dtd"><svg width="100%" height="100%" viewBox="0 0 4167 4167" version="1.1" xmlns="http://www.w3.org/2000/svg" xmlns:xlink="http://www.w3.org/1999/xlink" xml:space="preserve" xmlns:serif="http://www.serif.com/" style="fill-rule:evenodd;clip-rule:evenodd;stroke-linejoin:round;stroke-miterlimit:2;"><g><rect x="0" y="0" width="4166.67" height="4166.67" style="fill:#fff;"/><path d="M774.533,2556.86l306.193,-958.455l158.081,0l-306.905,958.455l-157.369,0Z" style="fill-rule:nonzero;"/><path d="M1573.48,2566.83c-66.935,0 -123.782,-14.597 -170.542,-43.792c-46.76,-29.195 -82.364,-71.683 -106.812,-127.462c-24.448,-55.779 -36.672,-123.783 -36.672,-204.01c0,-80.702 12.224,-149.061 36.672,-205.078c24.448,-56.017 60.052,-98.623 106.812,-127.818c46.76,-29.195 103.607,-43.793 170.542,-43.793c67.41,0 124.376,14.598 170.899,43.793c46.522,29.195 82.126,71.801 106.811,127.818c24.686,56.017 37.028,124.376 37.028,205.078c0,80.227 -12.342,148.231 -37.028,204.01c-24.685,55.779 -60.289,98.267 -106.811,127.462c-46.523,29.195 -103.489,43.792 -170.899,43.792Zm0,-134.582c34.655,-0 61.832,-10.562 81.533,-31.687c19.701,-21.125 33.349,-49.846 40.944,-86.162c7.596,-36.316 11.394,-77.26 11.394,-122.833c-0,-45.573 -3.798,-86.517 -11.394,-122.833c-7.595,-36.316 -21.243,-65.037 -40.944,-86.162c-19.701,-21.124 -46.878,-31.687 -81.533,-31.687c-34.179,0 -60.882,10.563 -80.108,31.687c-19.226,21.125 -32.756,49.727 -40.589,85.806c-7.833,36.078 -11.749,77.141 -11.749,123.189c-0,46.048 3.916,87.229 11.749,123.545c7.833,36.316 21.363,64.918 40.589,85.806c19.226,20.887 45.929,31.331 80.108,31.331Z" style="fill-rule:nonzero;"/><path d="M2044.88,2556.86l0,-730.59l172.323,-0l2.848,104.675c20.888,-29.907 48.303,-56.492 82.245,-79.753c33.942,-23.261 77.26,-34.891 129.954,-34.891c61.713,-0 109.66,20.412 143.839,61.238c34.18,40.826 51.27,99.928 51.27,177.307l-0,502.014l-177.307,0l-0,-479.227c-0,-21.837 -2.611,-41.894 -7.833,-60.171c-5.222,-18.276 -14.004,-32.874 -26.347,-43.792c-12.343,-10.919 -29.67,-16.378 -51.981,-16.378c-29.908,-0 -56.373,8.307 -79.397,24.922c-23.024,16.616 -43.555,36.554 -61.595,59.815l0,514.831l-178.019,0Z" style="fill-rule:nonzero;"/><path d="M3100.18,2568.26c-71.208,-0 -130.547,-14.835 -178.019,-44.505c-47.472,-29.67 -83.076,-72.632 -106.812,-128.886c-23.736,-56.254 -35.604,-123.783 -35.604,-202.586c0,-78.803 11.631,-146.45 34.892,-202.942c23.261,-56.491 58.034,-99.809 104.319,-129.954c46.285,-30.144 103.845,-45.217 172.679,-45.217c92.095,0 165.321,31.213 219.676,93.638c54.355,62.426 81.295,151.554 80.82,267.385c0,4.747 -0.237,12.936 -0.712,24.567c-0.474,11.63 -0.949,21.006 -1.424,28.127l-431.518,-0c0.949,39.402 6.171,75.361 15.665,107.88c9.495,32.518 24.33,58.271 44.505,77.26c20.176,18.989 47.116,28.483 80.821,28.483c28.008,-0 50.201,-6.646 66.579,-19.938c16.378,-13.292 29.077,-33.705 38.096,-61.239l183.716,0c-9.02,47.472 -25.872,86.636 -50.557,117.493c-24.686,30.857 -56.967,53.643 -96.843,68.359c-39.876,14.717 -86.636,22.075 -140.279,22.075Zm-140.991,-455.017l257.059,-0c-0.949,-59.34 -13.054,-103.608 -36.315,-132.803c-23.262,-29.195 -52.694,-43.792 -88.298,-43.792c-37.028,-0 -67.885,14.241 -92.57,42.724c-24.685,28.483 -37.977,73.107 -39.876,133.871Z" style="fill-rule:nonzero;"/></g></svg>