<?xml version="1.0" encoding="UTF-8" standalone="no"?><!DOCTYPE svg PUBLIC "-//W3C//DTD SVG 1.1//EN" "http://www.w3.org/Graphics/SVG/1.1/DTD/svg11.dtd"><svg width="100%" height="100%" viewBox="0 0 4167 4167" version="1.1" xmlns="http://www.w3.org/2000/svg" xmlns:xlink="http://www.w3.org/1999/xlink" xml:space="preserve" xmlns:serif="http://www.serif.com/" style="fill-rule:evenodd;clip-rule:evenodd;stroke-linejoin:round;stroke-miterlimit:2;"><g><rect x="0" y="0" width="4166.67" height="4166.67" style="fill:#fff;"/><path d="M492.35,3438.31l874.838,-2738.44l451.66,-0l-876.872,2738.44l-449.626,-0Z" style="fill-rule:nonzero;"/><path d="M2775.07,3466.8c-191.243,-0 -353.665,-41.707 -487.264,-125.122c-133.599,-83.415 -235.324,-204.807 -305.176,-364.177c-69.851,-159.369 -104.777,-353.664 -104.777,-582.885c0,-230.578 34.926,-425.89 104.777,-585.938c69.852,-160.048 171.577,-281.779 305.176,-365.194c133.599,-83.414 296.021,-125.122 487.264,-125.122c192.6,0 355.36,41.708 488.281,125.122c132.921,83.415 234.647,205.146 305.176,365.194c70.53,160.048 105.794,355.36 105.794,585.938c0,229.221 -35.264,423.516 -105.794,582.885c-70.529,159.37 -172.255,280.762 -305.176,364.177c-132.921,83.415 -295.681,125.122 -488.281,125.122Zm0,-384.522c99.013,0 176.663,-30.178 232.951,-90.535c56.288,-60.357 95.283,-142.415 116.984,-246.175c21.701,-103.76 32.552,-220.744 32.552,-350.952c0,-130.209 -10.851,-247.193 -32.552,-350.953c-21.701,-103.759 -60.696,-185.818 -116.984,-246.175c-56.288,-60.357 -133.938,-90.535 -232.951,-90.535c-97.656,-0 -173.95,30.178 -228.882,90.535c-54.931,60.357 -93.587,142.077 -115.967,245.158c-22.379,103.082 -33.569,220.405 -33.569,351.97c0,131.564 11.19,249.227 33.569,352.986c22.38,103.76 61.036,185.479 115.967,245.158c54.932,59.679 131.226,89.518 228.882,89.518Z" style="fill-rule:nonzero;"/></g></svg>