<?xml version="1.0" encoding="UTF-8" standalone="no"?><!DOCTYPE svg PUBLIC "-//W3C//DTD SVG 1.1//EN" "http://www.w3.org/Graphics/SVG/1.1/DTD/svg11.dtd"><svg width="100%" height="100%" viewBox="0 0 4167 4167" version="1.1" xmlns="http://www.w3.org/2000/svg" xmlns:xlink="http://www.w3.org/1999/xlink" xml:space="preserve" xmlns:serif="http://www.serif.com/" style="fill-rule:evenodd;clip-rule:evenodd;stroke-linejoin:round;stroke-miterlimit:2;"><g><rect x="0" y="0" width="4166.67" height="4166.67" style="fill:#fff;"/><path d="M574.054,2388.14c-20.888,-0 -41.701,-2.089 -62.439,-6.266c-20.738,-4.178 -39.686,-10.966 -56.844,-20.366c-17.158,-9.399 -30.958,-22.379 -41.402,-38.94c-10.444,-16.561 -15.666,-37.076 -15.666,-61.544l103.394,0c0.298,19.396 7.833,32.898 22.603,40.507c14.771,7.609 31.406,11.414 49.906,11.414c18.799,-0 33.048,-4.327 42.745,-12.981c9.698,-8.653 14.547,-21.932 14.547,-39.835c0,-20.589 -6.49,-35.957 -19.47,-46.102c-12.98,-10.145 -35.285,-19.843 -66.915,-29.093c-25.96,-7.46 -49.683,-16.412 -71.167,-26.856c-21.484,-10.444 -38.567,-24.468 -51.249,-42.074c-12.682,-17.605 -19.023,-40.73 -19.023,-69.376c0,-23.872 4.7,-44.237 14.099,-61.096c9.4,-16.86 22.007,-30.511 37.822,-40.955c15.815,-10.444 33.644,-18.127 53.487,-23.051c19.843,-4.923 40.358,-7.385 61.544,-7.385c18.799,-0 37.672,1.939 56.62,5.819c18.948,3.879 36.18,10.443 51.697,19.694c15.516,9.25 28.049,21.708 37.597,37.373c9.549,15.666 14.323,35.136 14.323,58.411l-103.841,0c0,-17.605 -5.818,-29.466 -17.456,-35.583c-11.637,-6.117 -25.065,-9.176 -40.283,-9.176c-16.412,-0 -29.466,3.655 -39.164,10.966c-9.698,7.311 -14.547,19.619 -14.547,36.926c0,10.146 3.73,18.724 11.19,25.737c7.46,7.012 18.351,13.204 32.674,18.575c14.323,5.371 31.779,10.891 52.368,16.561c22.38,6.266 43.566,14.919 63.558,25.96c19.992,11.04 36.255,25.96 48.787,44.759c12.533,18.799 18.799,43.267 18.799,73.405c0,35.509 -8.056,63.856 -24.17,85.042c-16.113,21.186 -36.926,36.404 -62.439,45.655c-25.512,9.25 -52.741,13.875 -81.685,13.875Z" style="fill-rule:nonzero;"/><path d="M981.362,2380.98c-40.582,0 -71.988,-4.774 -94.218,-14.322c-22.23,-9.549 -37.747,-24.693 -46.549,-45.431c-8.803,-20.738 -13.204,-47.967 -13.204,-81.685l-0,-461.019l111.897,-0l0,454.305c0,21.186 2.761,36.702 8.281,46.549c5.52,9.847 17.829,14.771 36.926,14.771l25.065,-0l0,86.832l-28.198,0Z" style="fill-rule:nonzero;"/><path d="M1193.07,2387.7c-22.082,0 -42.596,-4.849 -61.544,-14.546c-18.948,-9.698 -34.241,-24.32 -45.878,-43.864c-11.638,-19.545 -17.456,-44.237 -17.456,-74.077c-0,-41.178 10.593,-72.509 31.779,-93.994c21.186,-21.484 50.801,-36.105 88.846,-43.864c38.046,-7.758 82.283,-12.234 132.711,-13.427l0,-41.179c0,-29.541 -5.371,-50.055 -16.113,-61.544c-10.742,-11.488 -25.065,-17.232 -42.969,-17.232c-18.5,0 -33.345,4.476 -44.535,13.428c-11.19,8.952 -17.232,23.275 -18.128,42.969l-104.736,-0c4.476,-45.655 21.485,-78.254 51.026,-97.799c29.541,-19.545 68.332,-29.317 116.373,-29.317c25.961,-0 49.235,2.387 69.824,7.161c20.59,4.774 38.195,12.98 52.816,24.618c14.622,11.637 25.811,27.377 33.57,47.221c7.758,19.843 11.637,44.535 11.637,74.076l-0,314.656l-104.736,0l-3.581,-55.948c-15.815,21.782 -34.39,37.672 -55.725,47.668c-21.335,9.996 -45.729,14.994 -73.181,14.994Zm40.283,-72.062c17.008,0 33.42,-5.222 49.235,-15.666c15.815,-10.443 28.646,-21.932 38.493,-34.464l-0,-101.603c-51.026,0.298 -87.206,7.161 -108.541,20.589c-21.335,13.428 -32.003,35.36 -32.003,65.796c0,22.081 4.924,38.493 14.771,49.235c9.847,10.742 22.528,16.113 38.045,16.113Z" style="fill-rule:nonzero;"/><path d="M1700.64,2388.14c-20.888,-0 -41.701,-2.089 -62.439,-6.266c-20.738,-4.178 -39.686,-10.966 -56.844,-20.366c-17.158,-9.399 -30.958,-22.379 -41.402,-38.94c-10.444,-16.561 -15.666,-37.076 -15.666,-61.544l103.394,0c0.298,19.396 7.832,32.898 22.603,40.507c14.77,7.609 31.406,11.414 49.906,11.414c18.799,-0 33.048,-4.327 42.745,-12.981c9.698,-8.653 14.547,-21.932 14.547,-39.835c0,-20.589 -6.49,-35.957 -19.47,-46.102c-12.98,-10.145 -35.285,-19.843 -66.915,-29.093c-25.96,-7.46 -49.683,-16.412 -71.167,-26.856c-21.484,-10.444 -38.567,-24.468 -51.249,-42.074c-12.682,-17.605 -19.023,-40.73 -19.023,-69.376c0,-23.872 4.7,-44.237 14.099,-61.096c9.4,-16.86 22.007,-30.511 37.822,-40.955c15.815,-10.444 33.644,-18.127 53.487,-23.051c19.843,-4.923 40.358,-7.385 61.544,-7.385c18.798,-0 37.672,1.939 56.62,5.819c18.948,3.879 36.18,10.443 51.697,19.694c15.516,9.25 28.049,21.708 37.597,37.373c9.549,15.666 14.323,35.136 14.323,58.411l-103.841,0c0,-17.605 -5.819,-29.466 -17.456,-35.583c-11.637,-6.117 -25.065,-9.176 -40.283,-9.176c-16.412,-0 -29.467,3.655 -39.164,10.966c-9.698,7.311 -14.547,19.619 -14.547,36.926c-0,10.146 3.73,18.724 11.19,25.737c7.46,7.012 18.351,13.204 32.674,18.575c14.323,5.371 31.779,10.891 52.368,16.561c22.38,6.266 43.566,14.919 63.558,25.96c19.992,11.04 36.255,25.96 48.787,44.759c12.533,18.799 18.799,43.267 18.799,73.405c0,35.509 -8.056,63.856 -24.17,85.042c-16.113,21.186 -36.926,36.404 -62.439,45.655c-25.512,9.25 -52.741,13.875 -81.685,13.875Z" style="fill-rule:nonzero;"/><path d="M1966.51,2380.98l0,-602.457l111.003,-0l-0,207.234c13.129,-18.5 30.212,-34.986 51.249,-49.458c21.037,-14.472 47.967,-21.709 80.79,-21.709c39.388,0 69.75,12.682 91.085,38.046c21.335,25.363 32.003,62.364 32.003,111.002l-0,317.342l-111.898,0l-0,-303.019c-0,-12.831 -1.567,-24.99 -4.7,-36.478c-3.133,-11.489 -8.504,-20.739 -16.113,-27.751c-7.609,-7.012 -18.426,-10.518 -32.45,-10.518c-19.396,-0 -36.479,5.221 -51.25,15.665c-14.77,10.444 -27.377,22.678 -37.821,36.703l-0,325.398l-111.898,0Z" style="fill-rule:nonzero;"/><path d="M2625.81,2387.25c-42.074,-0 -77.806,-9.176 -107.198,-27.527c-29.392,-18.351 -51.772,-45.058 -67.139,-80.119c-15.367,-35.061 -23.051,-77.806 -23.051,-128.235c0,-50.727 7.684,-93.696 23.051,-128.906c15.367,-35.211 37.747,-61.991 67.139,-80.343c29.392,-18.351 65.124,-27.527 107.198,-27.527c42.372,0 78.179,9.176 107.422,27.527c29.242,18.352 51.622,45.132 67.138,80.343c15.517,35.21 23.275,78.179 23.275,128.906c0,50.429 -7.758,93.174 -23.275,128.235c-15.516,35.061 -37.896,61.768 -67.138,80.119c-29.243,18.351 -65.05,27.527 -107.422,27.527Zm-0,-84.595c21.783,-0 38.866,-6.639 51.249,-19.918c12.383,-13.278 20.962,-31.331 25.737,-54.158c4.774,-22.827 7.161,-48.564 7.161,-77.21c-0,-28.646 -2.387,-54.382 -7.161,-77.209c-4.775,-22.827 -13.354,-40.88 -25.737,-54.159c-12.383,-13.278 -29.466,-19.918 -51.249,-19.918c-21.485,0 -38.269,6.64 -50.354,19.918c-12.085,13.279 -20.589,31.257 -25.513,53.935c-4.923,22.678 -7.385,48.489 -7.385,77.433c-0,28.944 2.462,54.83 7.385,77.657c4.924,22.827 13.428,40.806 25.513,53.935c12.085,13.129 28.869,19.694 50.354,19.694Z" style="fill-rule:nonzero;"/><path d="M2922.12,2380.98l0,-459.228l108.317,-0l1.791,65.796c13.129,-18.799 30.361,-35.509 51.696,-50.13c21.336,-14.622 48.564,-21.932 81.686,-21.932c38.791,-0 68.929,12.831 90.413,38.492c21.485,25.662 32.227,62.812 32.227,111.451l-0,315.551l-111.45,0l-0,-301.228c-0,-13.727 -1.642,-26.334 -4.924,-37.822c-3.282,-11.488 -8.803,-20.664 -16.561,-27.527c-7.758,-6.863 -18.649,-10.294 -32.674,-10.294c-18.799,-0 -35.434,5.222 -49.906,15.665c-14.472,10.444 -27.378,22.977 -38.717,37.598l-0,323.608l-111.898,0Z" style="fill-rule:nonzero;"/><path d="M3585.45,2388.14c-44.759,-0 -82.058,-9.325 -111.898,-27.975c-29.839,-18.649 -52.218,-45.654 -67.138,-81.014c-14.92,-35.359 -22.38,-77.806 -22.38,-127.339c0,-49.534 7.311,-92.055 21.932,-127.564c14.622,-35.509 36.479,-62.737 65.572,-81.685c29.094,-18.948 65.274,-28.422 108.541,-28.422c57.889,-0 103.916,19.619 138.082,58.858c34.166,39.239 51.1,95.262 50.802,168.071c-0,2.984 -0.15,8.131 -0.448,15.441c-0.298,7.311 -0.597,13.204 -0.895,17.68l-271.24,0c0.596,24.767 3.879,47.37 9.847,67.81c5.968,20.44 15.292,36.628 27.974,48.564c12.682,11.936 29.616,17.904 50.802,17.904c17.605,-0 31.555,-4.178 41.849,-12.533c10.295,-8.355 18.277,-21.186 23.947,-38.493l115.478,0c-5.669,29.84 -16.262,54.457 -31.779,73.853c-15.516,19.395 -35.807,33.718 -60.872,42.969c-25.065,9.25 -54.457,13.875 -88.176,13.875Zm-88.623,-286.011l161.581,0c-0.597,-37.299 -8.206,-65.124 -22.828,-83.476c-14.621,-18.351 -33.121,-27.526 -55.501,-27.526c-23.275,-0 -42.67,8.951 -58.187,26.855c-15.516,17.904 -23.871,45.953 -25.065,84.147Z" style="fill-rule:nonzero;"/></g></svg>